<svg version="1.1" id="Layer_1" xmlns="http://www.w3.org/2000/svg" xmlns:xlink="http://www.w3.org/1999/xlink" x="0px" y="0px"
	 width="100%" viewBox="0 0 320 320" enable-background="new 0 0 320 320" xml:space="preserve">
<path fill="none"  stroke="none" 
	d="
M172.000000,321.000000 
	C114.666679,321.000000 57.833355,321.000000 1.000023,321.000000 
	C1.000015,214.333359 1.000015,107.666725 1.000008,1.000066 
	C107.666618,1.000044 214.333237,1.000044 320.999878,1.000022 
	C320.999939,107.666595 320.999939,214.333191 320.999969,320.999878 
	C271.500000,321.000000 222.000000,321.000000 172.000000,321.000000 
M41.051701,115.954460 
	C41.031681,138.667358 40.983219,161.380295 41.007561,184.093155 
	C41.015720,191.706192 41.209496,199.319016 41.513649,207.542419 
	C54.324692,220.371521 67.102562,233.233978 79.956581,246.019882 
	C91.614723,257.616272 103.355858,269.129181 115.955818,280.949066 
	C138.669342,280.968964 161.382889,281.017456 184.096375,280.992737 
	C191.709473,280.984467 199.322357,280.789551 207.544067,280.481445 
	C220.370880,267.672394 233.230865,254.896317 246.014694,242.044510 
	C257.609558,230.388016 269.121490,218.649048 280.945129,206.050812 
	C280.966492,182.671722 281.014343,159.292603 280.992981,135.913559 
	C280.986664,128.963226 280.785919,122.013069 280.478363,114.454071 
	C267.670074,101.626274 254.895096,88.764992 242.043625,75.980591 
	C230.387207,64.384995 218.647522,52.873123 206.048706,41.051754 
	C183.667023,41.031582 161.285294,40.981731 138.903656,41.007160 
	C130.958847,41.016190 123.014229,41.208359 114.458282,41.511089 
	C101.630013,54.322788 88.768822,67.101746 75.983208,79.955872 
	C64.386887,91.614326 52.872894,103.354683 41.051701,115.954460 
z"/>
<path fill="#444DE6"  stroke="none" 
	d="
M115.060394,280.678894 
	C103.355858,269.129181 91.614723,257.616272 79.956581,246.019882 
	C67.102562,233.233978 54.324692,220.371521 41.641506,206.899597 
	C41.841232,176.470032 41.917076,146.683273 41.957146,116.896492 
	C41.957970,116.284256 41.543388,115.671455 41.322601,115.058922 
	C52.872894,103.354683 64.386887,91.614326 75.983208,79.955872 
	C88.768822,67.101746 101.630013,54.322788 115.101013,41.640171 
	C116.400665,41.847794 117.057549,41.994789 117.714485,41.995022 
	C146.179688,42.005135 174.644897,42.011002 203.110046,41.972248 
	C204.388504,41.970505 205.666382,41.549862 206.944534,41.324341 
	C218.647522,52.873123 230.387207,64.384995 242.043625,75.980591 
	C254.895096,88.764992 267.670074,101.626274 280.352539,115.097641 
	C280.155762,145.529388 280.080902,175.317581 280.041473,205.105789 
	C280.040680,205.719070 280.451324,206.332886 280.670013,206.946457 
	C269.121490,218.649048 257.609558,230.388016 246.014694,242.044510 
	C233.230865,254.896317 220.370880,267.672394 206.901794,280.354919 
	C176.471848,280.156158 146.684174,280.079926 116.896461,280.039734 
	C116.284737,280.038910 115.672432,280.456482 115.060394,280.678894 
M226.667557,146.832581 
	C215.828644,135.993774 205.004593,125.140060 194.147568,114.319435 
	C174.404633,94.642700 145.522079,94.980553 125.999275,114.971840 
	C117.039909,124.146202 107.909210,133.154770 98.778343,142.159561 
	C92.654510,148.198822 86.393852,154.099350 79.677895,160.558731 
	C97.713753,178.186279 114.128105,196.008789 132.429703,211.618652 
	C150.948837,227.414062 176.681702,224.558350 193.976746,207.206192 
	C201.385757,199.772736 208.791367,192.335327 216.259949,184.961945 
	C224.301544,177.022827 232.415161,169.156693 240.940079,160.826080 
	C235.926285,155.921494 231.541580,151.632278 226.667557,146.832581 
z"/>
<path fill="#4A4FC4" opacity="1.000000" stroke="none" 
	d="
M206.496613,41.188046 
	C205.666382,41.549862 204.388504,41.970505 203.110046,41.972248 
	C174.644897,42.011002 146.179688,42.005135 117.714485,41.995022 
	C117.057549,41.994789 116.400665,41.847794 115.406631,41.543087 
	C123.014229,41.208359 130.958847,41.016190 138.903656,41.007160 
	C161.285294,40.981731 183.667023,41.031582 206.496613,41.188046 
z"/>
<path fill="#4A4FC4" opacity="1.000000" stroke="none" 
	d="
M41.187149,115.506691 
	C41.543388,115.671455 41.957970,116.284256 41.957146,116.896492 
	C41.917076,146.683273 41.841232,176.470032 41.543892,206.594360 
	C41.209496,199.319016 41.015720,191.706192 41.007561,184.093155 
	C40.983219,161.380295 41.031681,138.667358 41.187149,115.506691 
z"/>
<path fill="#4A4FC4" opacity="1.000000" stroke="none" 
	d="
M280.807556,206.498627 
	C280.451324,206.332886 280.040680,205.719070 280.041473,205.105789 
	C280.080902,175.317581 280.155762,145.529388 280.450470,115.402023 
	C280.785919,122.013069 280.986664,128.963226 280.992981,135.913559 
	C281.014343,159.292603 280.966492,182.671722 280.807556,206.498627 
z"/>
<path fill="#4A4FC4" opacity="1.000000" stroke="none" 
	d="
M115.508102,280.813965 
	C115.672432,280.456482 116.284737,280.038910 116.896461,280.039734 
	C146.684174,280.079926 176.471848,280.156158 206.597427,280.454163 
	C199.322357,280.789551 191.709473,280.984467 184.096375,280.992737 
	C161.382889,281.017456 138.669342,280.968964 115.508102,280.813965 
z"/>
<path fill="none"  stroke="none" 
	d="
M226.912216,147.087830 
	C231.541580,151.632278 235.926285,155.921494 240.940079,160.826080 
	C232.415161,169.156693 224.301544,177.022827 216.259949,184.961945 
	C208.791367,192.335327 201.385757,199.772736 193.976746,207.206192 
	C176.681702,224.558350 150.948837,227.414062 132.429703,211.618652 
	C114.128105,196.008789 97.713753,178.186279 79.677895,160.558731 
	C86.393852,154.099350 92.654510,148.198822 98.778343,142.159561 
	C107.909210,133.154770 117.039909,124.146202 125.999275,114.971840 
	C145.522079,94.980553 174.404633,94.642700 194.147568,114.319435 
	C205.004593,125.140060 215.828644,135.993774 226.912216,147.087830 
z"/>
</svg>