<?xml version="1.0" standalone="no"?>
<!DOCTYPE svg PUBLIC "-//W3C//DTD SVG 20010904//EN"
 "http://www.w3.org/TR/2001/REC-SVG-20010904/DTD/svg10.dtd">
<svg version="1.0" xmlns="http://www.w3.org/2000/svg"
 width="320.000000pt" height="320.000000pt" fill="#000000" viewBox="0 0 320.000000 320.000000"
 preserveAspectRatio="xMidYMid meet">
<metadata>
Created by potrace 1.16, written by Peter Selinger 2001-2019
</metadata>
<g transform="translate(0.000000,320.000000) scale(0.100000,-0.100000)"
fill="#FFFFFF" stroke="none">
<path d="M0 1600 l0 -1600 1600 0 1600 0 0 1600 0 1600 -1600 0 -1600 0 0
-1600z m1770 1120 c62 -16 114 -31 117 -34 3 -2 -13 -71 -36 -153 -91 -337
-122 -455 -118 -459 2 -2 111 104 243 236 131 132 243 240 249 240 13 0 165
-152 165 -165 0 -5 -102 -113 -227 -238 -126 -126 -219 -227 -208 -224 11 3
166 45 344 92 178 48 327 83 331 78 9 -10 64 -222 59 -227 -2 -2 -116 -33
-254 -70 -137 -36 -276 -74 -309 -84 l-59 -18 144 -38 c79 -21 233 -62 342
-92 108 -30 199 -54 201 -54 3 0 -4 -30 -15 -67 -11 -38 -24 -89 -30 -115 -12
-52 -25 -58 -85 -39 -16 6 -141 40 -279 77 -137 37 -257 69 -265 72 -8 2 96
-107 233 -244 136 -137 247 -254 247 -259 0 -6 -37 -47 -83 -93 l-82 -82 -225
225 c-124 124 -228 225 -231 225 -4 0 2 -28 12 -62 10 -35 41 -151 69 -258 28
-107 62 -232 75 -278 17 -61 20 -85 11 -88 -6 -2 -60 -17 -119 -33 l-107 -28
-8 31 c-5 17 -42 156 -83 308 -41 153 -76 278 -79 278 -3 0 -45 -151 -94 -336
-50 -184 -93 -337 -96 -339 -6 -4 -221 53 -229 60 -2 3 10 57 28 122 17 65 54
201 81 303 27 102 50 188 50 192 0 5 -113 -105 -251 -243 l-251 -251 -89 88
-89 89 227 227 c125 126 226 228 223 228 -3 0 -156 -41 -340 -90 -184 -49
-336 -88 -338 -86 -4 5 -61 208 -62 222 0 12 40 24 384 115 169 44 233 65 220
71 -16 6 -177 50 -626 169 -22 6 -38 16 -38 25 0 19 51 207 59 216 5 6 507
-122 594 -152 15 -5 27 -6 27 -2 0 4 -110 117 -245 252 -135 135 -245 249
-245 254 0 12 153 166 165 166 5 0 112 -102 237 -227 l227 -227 -14 50 c-51
181 -165 615 -165 628 0 10 16 19 43 26 23 6 73 20 111 30 39 11 72 18 74 15
3 -2 38 -127 78 -277 40 -150 79 -291 85 -313 l12 -40 14 45 c13 43 38 137
135 503 23 86 42 157 43 157 1 0 53 -13 115 -30z"/>
<path d="M1464 2011 c-353 -101 -467 -528 -209 -786 119 -120 273 -165 443
-131 71 15 190 89 249 156 36 41 82 133 99 201 86 334 -248 656 -582 560z"/>
</g>
</svg>
