<svg version="1.1" id="Layer_1" xmlns="http://www.w3.org/2000/svg" xmlns:xlink="http://www.w3.org/1999/xlink" x="0px" y="0px"
	 width="100%" viewBox="0 0 320 320" enable-background="new 0 0 320 320" xml:space="preserve">
<path fill="none"  stroke="none" 
	d="
M150.000000,321.000000 
	C100.000008,321.000000 50.500019,321.000000 1.000020,321.000000 
	C1.000013,214.333359 1.000013,107.666725 1.000007,1.000063 
	C107.666618,1.000042 214.333237,1.000042 320.999878,1.000021 
	C320.999939,107.666603 320.999939,214.333206 320.999969,320.999908 
	C264.166656,321.000000 207.333328,321.000000 150.000000,321.000000 
M185.026352,136.077972 
	C185.016479,131.291092 185.051987,126.503601 184.987366,121.717461 
	C184.847229,111.340233 184.655884,100.963692 184.731918,89.733742 
	C184.731918,73.862389 184.731918,57.991035 184.731918,41.398106 
	C183.400803,42.588726 182.650436,43.197361 181.970825,43.876766 
	C152.042068,73.796272 122.116432,103.718903 92.211121,133.661835 
	C91.289848,134.584259 90.587479,135.725311 89.163460,137.386398 
	C89.163460,153.143417 89.163460,168.900436 89.163460,184.932632 
	C105.406754,184.932632 121.202148,184.932632 136.976593,185.879105 
	C136.984955,189.042923 136.967514,192.207077 137.006271,195.370514 
	C137.152924,207.339005 137.317810,219.307266 137.233841,232.149231 
	C137.233841,247.979263 137.233841,263.809296 137.233841,279.639343 
	C137.737122,279.954926 138.240387,280.270538 138.743668,280.586151 
	C139.923553,278.993896 140.925247,277.223969 142.309662,275.835724 
	C170.378891,247.688385 198.497726,219.590530 226.584061,191.460251 
	C228.565598,189.475616 230.372299,187.316406 232.867950,184.604233 
	C232.867950,168.844940 232.867950,153.085648 232.867950,137.016693 
	C216.621994,137.016693 200.826324,137.016693 185.026352,136.077972 
z"/>
<path fill="#37D486" opacity="1.000000" stroke="none" 
	d="
M89.783066,136.764450 
	C90.587479,135.725311 91.289848,134.584259 92.211121,133.661835 
	C122.116432,103.718903 152.042068,73.796272 181.970825,43.876766 
	C182.650436,43.197361 183.400803,42.588726 184.731918,41.398106 
	C184.731918,57.991035 184.731918,73.862389 184.308716,90.276642 
	C182.413620,92.160698 180.892120,93.451691 179.477493,94.850754 
	C165.279663,108.892303 151.099396,122.951614 136.450928,137.001877 
	C120.586128,136.920044 105.184593,136.842239 89.783066,136.764450 
z"/>
<path fill="#16B76C" opacity="1.000000" stroke="none" 
	d="
M232.260300,185.238373 
	C230.372299,187.316406 228.565598,189.475616 226.584061,191.460251 
	C198.497726,219.590530 170.378891,247.688385 142.309662,275.835724 
	C140.925247,277.223969 139.923553,278.993896 138.743668,280.586151 
	C138.240387,280.270538 137.737122,279.954926 137.233841,279.639343 
	C137.233841,263.809296 137.233841,247.979263 137.674942,231.646454 
	C139.470688,229.925797 140.878006,228.761185 142.171860,227.481827 
	C156.485336,213.328568 170.781235,199.157532 185.545410,184.995056 
	C201.426056,185.078674 216.843170,185.158508 232.260300,185.238373 
z"/>
<path fill="#049756" opacity="1.000000" stroke="none" 
	d="
M89.473267,137.075424 
	C105.184593,136.842239 120.586128,136.920044 136.487045,137.468796 
	C137.029663,153.280334 137.072891,168.620911 137.045288,184.199249 
	C136.974442,184.436996 136.997543,184.932632 136.997543,184.932632 
	C121.202148,184.932632 105.406754,184.932632 89.163460,184.932632 
	C89.163460,168.900436 89.163460,153.143417 89.473267,137.075424 
z"/>
<path fill="#027947" opacity="1.000000" stroke="none" 
	d="
M232.564117,184.921295 
	C216.843170,185.158508 201.426056,185.078674 185.513672,184.528290 
	C184.927536,169.003967 184.836670,153.950165 184.809174,138.585800 
	C184.925232,137.855728 184.977936,137.436203 185.030640,137.016693 
	C200.826324,137.016693 216.621994,137.016693 232.867950,137.016693 
	C232.867950,153.085648 232.867950,168.844940 232.564117,184.921295 
z"/>
<path fill="#A4F3C5" opacity="1.000000" stroke="none" 
	d="
M185.028503,136.547333 
	C184.977936,137.436203 184.925232,137.855728 184.481201,138.645355 
	C182.704208,140.180206 181.225037,141.251114 179.947388,142.524231 
	C167.231400,155.195099 154.569214,167.920059 141.826599,180.563965 
	C140.469162,181.910858 138.696274,182.839050 137.116119,183.961487 
	C137.072891,168.620911 137.029663,153.280334 136.950317,137.472839 
	C151.099396,122.951614 165.279663,108.892303 179.477493,94.850754 
	C180.892120,93.451691 182.413620,92.160698 184.185486,90.703217 
	C184.655884,100.963692 184.847229,111.340233 184.987366,121.717461 
	C185.051987,126.503601 185.016479,131.291092 185.028503,136.547333 
z"/>
<path fill="#6CE8A7" opacity="1.000000" stroke="none" 
	d="
M137.045288,184.199249 
	C138.696274,182.839050 140.469162,181.910858 141.826599,180.563965 
	C154.569214,167.920059 167.231400,155.195099 179.947388,142.524231 
	C181.225037,141.251114 182.704208,140.180206 184.417847,138.955902 
	C184.836670,153.950165 184.927536,169.003967 185.050140,184.524536 
	C170.781235,199.157532 156.485336,213.328568 142.171860,227.481827 
	C140.878006,228.761185 139.470688,229.925797 137.795959,231.209656 
	C137.317810,219.307266 137.152924,207.339005 137.006271,195.370514 
	C136.967514,192.207077 136.984955,189.042923 136.987061,185.405869 
	C136.997543,184.932632 136.974442,184.436996 137.045288,184.199249 
z"/>
</svg>