<svg version="1.1" id="Layer_1" xmlns="http://www.w3.org/2000/svg" xmlns:xlink="http://www.w3.org/1999/xlink" x="0px" y="0px"
	 width="100%" viewBox="0 0 320 320" enable-background="new 0 0 320 320" xml:space="preserve">
<path fill="none"  stroke="none" 
	d="
M185.000000,321.000000 
	C123.333359,321.000000 62.166710,321.000000 1.000049,321.000000 
	C1.000033,214.333389 1.000033,107.666786 1.000016,1.000135 
	C107.666565,1.000090 214.333130,1.000090 320.999756,1.000045 
	C320.999847,107.666534 320.999847,214.333069 320.999939,320.999817 
	C275.833344,321.000000 230.666672,321.000000 185.000000,321.000000 
M251.960526,245.290298 
	C252.293777,244.827225 252.627029,244.364151 252.965195,243.967163 
	C252.965195,243.967163 252.899521,243.958359 253.563065,243.797989 
	C254.250885,242.748764 254.938705,241.699554 255.684204,240.747681 
	C255.684204,240.747681 255.582657,240.697739 256.092224,240.398727 
	C256.376648,239.893555 256.661102,239.388382 256.955658,238.950775 
	C256.955658,238.950775 256.887390,238.953094 257.552948,238.783310 
	C264.278992,232.426498 268.730957,224.775925 270.723724,215.817871 
	C270.723724,215.817871 270.608337,215.855545 271.052734,215.414398 
	C271.193054,214.824478 271.333344,214.234558 271.473480,213.600143 
	C271.473480,213.600143 271.509674,213.574295 272.177429,213.352631 
	C272.809723,212.421570 273.633606,211.567902 274.045624,210.547867 
	C280.506622,194.552170 282.484467,177.897522 282.057922,160.720734 
	C281.674896,145.294876 277.934265,130.812195 271.806030,116.824913 
	C271.188293,115.414963 269.837524,114.326157 268.895660,113.098549 
	C268.895660,113.098549 268.877472,113.165565 268.920135,112.381233 
	C267.471161,110.029411 266.022217,107.677589 264.647186,105.319695 
	C264.647186,105.319695 264.649353,105.393845 264.497559,104.879883 
	C264.289246,104.592178 264.080933,104.304482 263.950287,104.049774 
	C263.950287,104.049774 263.916840,104.127258 263.906158,103.373169 
	C262.015808,98.447586 260.478577,93.260841 254.907455,91.101845 
	C254.907455,91.101845 254.879089,91.167099 254.717453,90.615730 
	C254.281662,90.272392 253.845856,89.929047 253.313919,89.566475 
	C253.313919,89.566475 253.325897,89.469162 253.407745,88.759567 
	C251.872589,87.216682 250.337418,85.673798 248.872208,84.132858 
	C248.872208,84.132858 248.862350,84.202148 248.742310,83.524223 
	C247.751083,82.694832 246.759872,81.865448 245.280441,80.834061 
	C244.833832,80.301353 244.387222,79.768646 243.804474,78.531311 
	C242.055893,77.202774 240.307327,75.874237 239.000885,74.045296 
	C238.851547,74.209801 238.702225,74.374306 238.317245,74.002243 
	C237.841171,73.686646 237.365097,73.371040 236.954407,73.044586 
	C236.954407,73.044586 236.948593,73.110603 236.770020,72.444916 
	C235.695374,71.811699 234.620743,71.178490 233.820053,70.018303 
	C233.724350,70.192970 233.628647,70.367638 233.388077,69.852623 
	C232.104919,69.106888 230.821777,68.361153 229.473007,67.632050 
	C229.473007,67.632050 229.449997,67.568405 229.284683,66.901291 
	C228.147217,66.295349 227.009766,65.689407 225.949646,65.058327 
	C225.949646,65.058327 225.974197,65.135872 225.622437,64.541176 
	C224.281616,63.850147 222.940811,63.159119 221.958969,62.084743 
	C221.843918,62.216831 221.728867,62.348919 221.410767,61.818897 
	C217.251740,59.892933 213.092712,57.966965 208.988449,56.010826 
	C208.988449,56.010826 208.998016,56.072617 208.607697,55.501568 
	C201.880737,53.035122 195.290573,50.029087 188.382339,48.277672 
	C183.117386,46.942871 177.448944,47.199520 171.164978,46.826721 
	C170.387238,46.687572 169.609482,46.548428 168.735825,46.269150 
	C168.570282,46.171371 168.417999,46.186115 167.370377,46.474545 
	C166.765884,46.375378 166.161407,46.276215 164.852386,46.011208 
	C161.006622,46.117676 157.160873,46.224140 152.543121,46.657669 
	C151.708496,46.688091 150.873871,46.718510 149.295135,46.449409 
	C143.830688,47.403954 138.366226,48.358494 132.253128,49.703396 
	C131.766006,49.800877 131.278885,49.898354 129.968292,49.937244 
	C124.995529,51.683540 120.022766,53.429836 115.081703,55.094463 
	C115.081703,55.094463 115.163017,55.127079 114.364983,55.065723 
	C107.394936,56.854603 100.826324,59.374672 96.059738,65.060211 
	C96.059738,65.060211 96.129158,65.086700 95.421776,65.089340 
	C94.454102,65.914925 93.486420,66.740501 92.473404,67.554962 
	C92.473404,67.554962 92.459999,67.599670 91.733192,67.535042 
	C89.508881,69.398224 87.284569,71.261406 85.058617,73.055893 
	C85.058617,73.055893 85.127083,73.061600 84.572006,73.245232 
	C84.204506,73.673790 83.836998,74.102341 83.323662,74.373558 
	C83.323662,74.373558 83.432228,74.558594 82.735252,74.523720 
	C81.174942,76.093674 79.614624,77.663635 77.917419,79.621948 
	C77.755981,79.867554 77.529724,80.010712 76.755165,80.331924 
	C76.510475,80.610817 76.265785,80.889709 76.044762,81.056801 
	C76.044762,81.056801 76.156441,81.081039 75.470764,81.213043 
	C73.206772,83.970406 70.942780,86.727768 68.697083,89.623055 
	C68.697083,89.623055 68.560387,89.648964 67.865837,89.726402 
	C66.609344,91.528862 65.352859,93.331329 64.070732,95.068855 
	C64.070732,95.068855 64.139450,95.081154 63.461941,95.231293 
	C61.664997,98.192169 59.868053,101.153053 58.037884,104.035973 
	C58.037884,104.035973 58.116001,104.003120 57.747421,104.400208 
	C57.603901,104.729279 57.460381,105.058342 57.316471,105.290466 
	C57.316471,105.290466 57.413357,105.293633 56.742050,105.527969 
	C55.535465,108.072411 54.328880,110.616852 53.100700,113.079407 
	C53.100700,113.079407 53.182842,113.058830 52.572063,113.420364 
	C51.464260,116.168098 50.356457,118.915840 49.312305,121.853844 
	C49.312305,121.853844 49.141254,121.958710 48.623421,122.445168 
	C47.040668,126.238098 45.037216,129.914215 43.946213,133.843689 
	C38.514618,153.406693 38.631645,173.216599 42.499046,192.981705 
	C43.511814,198.157654 46.199924,203.005798 48.304764,208.188522 
	C48.304764,208.188522 48.263126,208.446930 48.217205,209.276718 
	C51.326702,215.371933 54.436195,221.467148 57.120770,227.875351 
	C57.260502,227.773117 57.400234,227.670883 57.471878,228.320419 
	C60.019413,231.897064 62.566948,235.473694 65.277092,239.087769 
	C65.277092,239.087769 65.243340,239.251175 65.408401,239.965256 
	C66.649017,241.289474 67.889633,242.613708 69.061417,243.937866 
	C69.061417,243.937866 69.068787,243.869431 69.254944,244.428452 
	C69.700790,244.786530 70.146637,245.144592 70.236053,246.012634 
	C70.359535,245.844528 70.483009,245.676437 70.591354,246.197922 
	C73.853188,249.310318 77.115013,252.422714 80.233253,255.739059 
	C80.233253,255.739059 80.407509,255.560577 80.580452,256.145325 
	C81.235825,256.540009 81.891205,256.934662 82.661247,257.320435 
	C82.661247,257.320435 82.677925,257.434235 82.735825,258.120483 
	C85.863693,260.392090 88.991570,262.663696 92.053894,264.949646 
	C92.053894,264.949646 92.052849,264.882538 92.227676,265.550995 
	C96.512779,268.016113 100.797890,270.481232 105.020424,272.971100 
	C105.020424,272.971100 105.004333,272.905762 105.410187,273.464996 
	C106.653473,273.943451 107.896759,274.421936 109.076538,274.925262 
	C109.076538,274.925262 109.062225,274.858582 109.316551,275.495026 
	C114.117111,277.247192 118.917664,278.999329 123.864250,280.681519 
	C123.864250,280.681519 123.937332,280.826019 124.389236,281.403809 
	C129.270950,282.897247 134.072540,284.775513 139.049454,285.811615 
	C153.713257,288.864349 168.484436,288.729279 183.131104,285.777130 
	C188.219894,284.751465 193.068268,282.532928 198.130081,280.688049 
	C198.130081,280.688049 198.317322,280.758606 199.203781,280.847534 
	C207.159103,277.504333 215.211487,274.367889 223.015762,270.703064 
	C225.656754,269.462860 227.670044,266.885986 229.972076,264.983032 
	C229.972076,264.983032 229.915192,264.955688 230.646011,264.924133 
	C233.410172,262.576080 236.174332,260.228027 238.948029,257.945831 
	C238.948029,257.945831 238.882080,257.937042 239.527313,257.805786 
	C240.211365,257.042511 240.895416,256.279205 241.969208,255.902359 
	C241.843170,255.769424 241.717133,255.636505 242.299362,255.536438 
	C244.765930,252.890091 247.232483,250.243744 249.712662,247.676346 
	C249.712662,247.676346 249.637924,247.647430 250.255829,247.521194 
	C250.639633,246.849564 251.023422,246.177917 251.963043,246.005264 
	C251.779587,245.837708 251.596115,245.670135 251.960526,245.290298 
z"/>
<path fill="#6927DA"  stroke="none" 
	d="
M198.317322,280.758606 
	C198.317322,280.758606 198.130081,280.688049 197.666656,280.779755 
	C185.077225,282.653656 172.949219,285.842743 160.825821,285.825287 
	C148.527283,285.807526 136.233307,282.623383 123.937332,280.826019 
	C123.937332,280.826019 123.864250,280.681519 123.498840,280.466949 
	C118.443024,278.454468 113.752625,276.656525 109.062225,274.858582 
	C109.062225,274.858582 109.076538,274.925262 108.891876,274.657715 
	C107.472916,273.895325 106.238625,273.400543 105.004333,272.905762 
	C105.004333,272.905762 105.020424,272.971100 104.874054,272.668274 
	C100.502747,269.871155 96.277802,267.376831 92.052856,264.882538 
	C92.052849,264.882538 92.053894,264.949646 91.911697,264.653687 
	C88.738976,262.049866 85.708458,259.742035 82.677933,257.434235 
	C82.677925,257.434235 82.661247,257.320435 82.445190,257.086121 
	C81.621918,256.421387 81.014717,255.990982 80.407509,255.560577 
	C80.407509,255.560577 80.233253,255.739059 80.134323,255.361877 
	C76.892433,251.825912 73.749458,248.667130 70.606491,245.508331 
	C70.483009,245.676437 70.359535,245.844528 70.296997,245.490250 
	C69.928215,244.601730 69.498497,244.235580 69.068787,243.869431 
	C69.068787,243.869431 69.061417,243.937866 68.989258,243.615921 
	C67.692513,241.946381 66.467926,240.598785 65.243332,239.251175 
	C65.243340,239.251175 65.277092,239.087769 65.111572,238.721527 
	C62.477360,234.759750 60.008659,231.164215 57.539963,227.568665 
	C57.400234,227.670883 57.260502,227.773117 57.222855,227.375305 
	C54.304337,220.732498 51.283730,214.589706 48.263123,208.446930 
	C48.263126,208.446930 48.304764,208.188522 48.209648,207.698395 
	C43.176136,192.801346 40.663982,178.022995 41.059635,162.755661 
	C41.424374,148.681458 44.754768,135.222092 49.141254,121.958710 
	C49.141254,121.958710 49.312305,121.853844 49.551048,121.507950 
	C50.920807,118.460983 52.051826,115.759911 53.182846,113.058830 
	C53.182842,113.058830 53.100700,113.079407 53.380432,112.908188 
	C54.911224,110.255852 56.162292,107.774742 57.413357,105.293633 
	C57.413357,105.293633 57.316471,105.290466 57.557877,105.184486 
	C57.904858,104.720047 58.010433,104.361588 58.116005,104.003120 
	C58.116001,104.003120 58.037884,104.035973 58.321152,103.868927 
	C60.449429,100.828308 62.294437,97.954727 64.139450,95.081154 
	C64.139450,95.081154 64.070732,95.068855 64.367706,94.941040 
	C65.963249,93.091797 67.261818,91.370377 68.560387,89.648964 
	C68.560387,89.648964 68.697083,89.623055 68.947350,89.363045 
	C71.517227,86.429031 73.836830,83.755035 76.156433,81.081039 
	C76.156441,81.081039 76.044762,81.056801 76.311081,81.020248 
	C76.797821,80.672943 77.018234,80.362190 77.238640,80.051430 
	C77.529724,80.010712 77.755981,79.867554 78.300598,79.312286 
	C80.266602,77.521286 81.849411,76.039940 83.432228,74.558594 
	C83.432228,74.558594 83.323662,74.373558 83.660156,74.339371 
	C84.373466,73.890648 84.750275,73.476128 85.127083,73.061600 
	C85.127083,73.061600 85.058617,73.055893 85.383293,72.982971 
	C87.958641,71.139923 90.209320,69.369797 92.459999,67.599670 
	C92.459999,67.599670 92.473404,67.554962 92.794937,67.449509 
	C94.120705,66.591606 95.124931,65.839149 96.129158,65.086700 
	C96.129158,65.086700 96.059738,65.060211 96.399208,65.030075 
	C102.880127,61.708984 109.021576,58.418034 115.163017,55.127083 
	C115.163017,55.127079 115.081703,55.094463 115.453934,55.103127 
	C120.814697,53.406471 125.803230,51.701153 130.791763,49.995834 
	C131.278885,49.898354 131.766006,49.800877 132.968567,49.571949 
	C139.135757,48.543312 144.587494,47.646118 150.039246,46.748928 
	C150.873871,46.718510 151.708496,46.688091 153.346802,46.600090 
	C157.952621,46.420689 161.754761,46.298866 165.556915,46.177048 
	C166.161407,46.276215 166.765884,46.375378 167.948364,46.495964 
	C168.526337,46.517384 168.831741,46.409279 168.831741,46.409279 
	C169.609482,46.548428 170.387238,46.687572 171.974396,46.897415 
	C184.855209,50.002941 196.926620,53.037777 208.998016,56.072617 
	C208.998016,56.072617 208.988449,56.010826 209.171158,56.303215 
	C213.440521,58.557407 217.527176,60.519207 221.613831,62.481003 
	C221.728867,62.348919 221.843918,62.216831 221.973450,62.532368 
	C223.316681,63.698620 224.645447,64.417252 225.974197,65.135880 
	C225.974197,65.135872 225.949646,65.058327 226.078400,65.340385 
	C227.288116,66.271095 228.369049,66.919754 229.449997,67.568405 
	C229.449997,67.568405 229.473007,67.632050 229.700699,67.866837 
	C231.129898,68.915184 232.331421,69.728745 233.532928,70.542305 
	C233.628647,70.367638 233.724350,70.192970 233.871338,70.526382 
	C234.931290,71.726509 235.939941,72.418556 236.948593,73.110603 
	C236.948593,73.110603 236.954407,73.044586 237.035553,73.317596 
	C237.595444,73.906677 238.074173,74.222740 238.552887,74.538803 
	C238.702225,74.374306 238.851547,74.209801 238.969604,74.553307 
	C240.605759,76.452858 242.273178,77.844398 243.940613,79.235939 
	C244.387222,79.768646 244.833832,80.301353 245.658981,81.229897 
	C246.979126,82.484535 247.920746,83.343346 248.862350,84.202148 
	C248.862350,84.202148 248.872208,84.132858 248.937927,84.443054 
	C250.444382,86.325226 251.885147,87.897194 253.325897,89.469162 
	C253.325897,89.469162 253.313919,89.566475 253.479935,89.829269 
	C254.056992,90.450409 254.468048,90.808754 254.879089,91.167099 
	C254.879089,91.167099 254.907455,91.101845 254.968384,91.437691 
	C257.991852,95.891441 260.954346,100.009346 263.916840,104.127258 
	C263.916840,104.127258 263.950287,104.049774 263.931458,104.316269 
	C264.158203,104.853127 264.403778,105.123489 264.649353,105.393845 
	C264.649353,105.393845 264.647186,105.319695 264.704681,105.663307 
	C266.133942,108.393135 267.505707,110.779350 268.877472,113.165573 
	C268.877472,113.165565 268.895660,113.098549 268.914673,113.461975 
	C277.685730,132.202209 281.715851,151.556351 280.864868,171.898880 
	C280.260406,186.347717 276.718445,200.151642 271.509674,213.574295 
	C271.509674,213.574295 271.473480,213.600143 271.273743,213.850616 
	C270.918793,214.685928 270.763580,215.270737 270.608337,215.855545 
	C270.608337,215.855545 270.723724,215.817871 270.465576,216.006500 
	C265.767426,223.781113 261.327423,231.367096 256.887390,238.953094 
	C256.887390,238.953094 256.955658,238.950775 256.680542,239.049561 
	C256.131165,239.664810 255.856903,240.181274 255.582642,240.697739 
	C255.582657,240.697739 255.684204,240.747681 255.374023,240.834198 
	C254.342392,241.933243 253.620956,242.945801 252.899521,243.958359 
	C252.899521,243.958359 252.965195,243.967163 252.688202,244.032745 
	C252.078369,244.566422 251.745514,245.034500 251.412659,245.502579 
	C251.596115,245.670135 251.779587,245.837708 251.443512,245.907242 
	C250.495285,246.421951 250.066605,247.034683 249.637924,247.647430 
	C249.637924,247.647430 249.712662,247.676346 249.405350,247.787735 
	C246.595734,250.433960 244.093414,252.968781 241.591095,255.503601 
	C241.717133,255.636505 241.843170,255.769424 241.494141,255.836517 
	C240.306747,256.492798 239.594421,257.214935 238.882080,257.937042 
	C238.882080,257.937042 238.948029,257.945831 238.627167,258.040497 
	C235.509262,260.408661 232.712219,262.682159 229.915192,264.955688 
	C229.915192,264.955688 229.972076,264.983032 229.626373,265.024597 
	C218.959564,270.296967 208.638443,275.527771 198.317322,280.758606 
M182.257935,64.937180 
	C171.841690,64.382843 161.425461,63.828510 150.297211,63.219212 
	C149.850143,63.365582 149.403091,63.511951 148.200378,63.579742 
	C145.132553,64.118843 142.064728,64.657951 138.257980,65.197746 
	C135.606094,66.251831 132.954208,67.305908 129.466309,68.692291 
	C135.300568,70.494164 140.730515,71.303703 145.279846,73.750534 
	C155.879074,79.451241 165.807617,79.634247 176.537781,73.849159 
	C181.795288,71.014610 188.204330,70.315926 195.457291,68.264481 
	C190.398682,67.017387 186.715958,66.109497 182.257935,64.937180 
M179.072678,222.596664 
	C198.427292,208.243698 214.319046,190.755234 226.843887,170.160919 
	C228.530853,167.387115 228.525604,165.354126 226.799301,162.532043 
	C211.241928,137.099747 190.867706,116.552704 165.465439,100.914948 
	C162.147476,98.872383 159.723022,98.934090 156.461121,100.955627 
	C131.252960,116.578262 110.834343,136.886627 95.390793,162.240356 
	C93.586800,165.201965 93.473740,167.388062 95.282738,170.360397 
	C109.711647,194.068298 128.781921,213.148132 151.562637,228.921188 
	C158.781128,233.919189 164.375916,234.212540 170.740051,228.457108 
	C173.063187,226.356171 175.898560,224.821625 179.072678,222.596664 
M218.228592,85.016045 
	C204.944870,82.610687 192.404938,85.310638 179.179398,90.229065 
	C202.770493,105.805740 221.540741,124.856239 237.176010,148.068298 
	C241.473389,137.283325 243.345078,127.052711 243.086884,116.421593 
	C242.679733,99.658409 235.122421,89.838829 218.228592,85.016045 
M92.619385,137.140793 
	C106.434303,118.847710 123.004494,103.434319 142.938583,90.026833 
	C128.133469,85.145676 114.411087,81.749130 99.960045,86.028595 
	C91.320122,88.587196 84.912354,93.886940 81.741837,102.426712 
	C76.057770,117.736656 79.269630,132.510345 84.686584,148.093704 
	C87.565994,144.096802 89.869347,140.899521 92.619385,137.140793 
M182.245743,240.418228 
	C181.459244,241.101334 180.672745,241.784454 179.521667,242.784241 
	C189.807648,246.526688 199.813919,249.020248 210.210938,248.546173 
	C230.807129,247.607071 242.342468,236.863174 242.893723,217.819183 
	C243.097992,210.762634 241.921799,203.622299 240.890747,196.591187 
	C240.322052,192.713058 238.748962,188.982224 237.466431,184.635040 
	C213.245010,215.832504 203.140244,226.042221 182.245743,240.418228 
M91.466431,194.015610 
	C89.356972,191.100357 87.247505,188.185120 84.685616,184.644608 
	C79.908211,198.008835 77.132408,210.792313 79.848549,224.200775 
	C82.587471,237.721634 92.057632,246.910355 105.825813,247.809433 
	C114.303802,248.363037 122.947189,246.991028 131.465454,246.031921 
	C135.045441,245.628830 138.494034,244.059067 142.062317,243.001923 
	C132.675629,235.206985 123.411697,228.393402 115.223114,220.468658 
	C106.897438,212.411240 99.631569,203.258743 91.466431,194.015610 
M164.402985,270.021851 
	C174.243286,268.563904 184.083588,267.105988 193.923889,265.648071 
	C193.881027,265.098877 193.838150,264.549683 193.795288,264.000488 
	C193.236099,263.722870 192.701736,263.368042 192.114014,263.179199 
	C182.978745,260.243713 173.876709,257.191925 164.667511,254.508408 
	C162.390076,253.844757 159.592896,253.821518 157.320526,254.484222 
	C148.115601,257.168793 139.019104,260.226105 129.894104,263.181458 
	C129.239929,263.393341 128.678268,263.890839 127.656975,264.506805 
	C139.657440,268.444977 151.367645,270.376648 164.402985,270.021851 
M257.127869,138.733185 
	C254.421768,146.732666 251.603775,154.697220 249.088577,162.756271 
	C248.462082,164.763687 248.216034,167.260437 248.819199,169.216507 
	C251.356506,177.444855 254.260590,185.560928 257.093964,193.695984 
	C257.420868,194.634583 258.144592,195.434998 259.413788,197.467651 
	C260.382080,194.852127 261.157745,193.462952 261.398438,191.986542 
	C262.545105,184.953079 264.565674,177.866318 264.362122,170.854050 
	C264.051270,160.146683 262.254761,149.473801 260.883209,138.812744 
	C260.589294,136.527939 259.520752,133.909988 257.127869,138.733185 
M59.383480,187.002884 
	C60.417744,190.343079 61.452007,193.683258 62.782436,197.979919 
	C66.873650,186.948990 70.401009,177.504135 73.849396,168.030518 
	C74.165619,167.161774 74.279327,166.000809 73.976929,165.158737 
	C70.416039,155.242905 66.757721,145.362061 62.771053,134.508209 
	C56.413876,151.802887 56.278866,168.861084 59.383480,187.002884 
z"/>
<path fill="#6927DA"  stroke="none" 
	d="
M271.843567,213.463470 
	C276.718445,200.151642 280.260406,186.347717 280.864868,171.898880 
	C281.715851,151.556351 277.685730,132.202209 268.880310,113.456856 
	C269.837524,114.326157 271.188293,115.414963 271.806030,116.824913 
	C277.934265,130.812195 281.674896,145.294876 282.057922,160.720734 
	C282.484467,177.897522 280.506622,194.552170 274.045624,210.547867 
	C273.633606,211.567902 272.809723,212.421570 271.843567,213.463470 
z"/>
<path fill="#6927DA"  stroke="none" 
	d="
M48.882339,122.201935 
	C44.754768,135.222092 41.424374,148.681458 41.059635,162.755661 
	C40.663982,178.022995 43.176136,192.801346 48.116581,207.606384 
	C46.199924,203.005798 43.511814,198.157654 42.499046,192.981705 
	C38.631645,173.216599 38.514618,153.406693 43.946213,133.843689 
	C45.037216,129.914215 47.040668,126.238098 48.882339,122.201935 
z"/>
<path fill="#6927DA"  stroke="none" 
	d="
M124.163284,281.114929 
	C136.233307,282.623383 148.527283,285.807526 160.825821,285.825287 
	C172.949219,285.842743 185.077225,282.653656 197.614838,280.865326 
	C193.068268,282.532928 188.219894,284.751465 183.131104,285.777130 
	C168.484436,288.729279 153.713257,288.864349 139.049454,285.811615 
	C134.072540,284.775513 129.270950,282.897247 124.163284,281.114929 
z"/>
<path fill="#FFFFFF"  stroke="none" 
	d="
M208.802856,55.787094 
	C196.926620,53.037777 184.855209,50.002941 172.371918,46.858131 
	C177.448944,47.199520 183.117386,46.942871 188.382339,48.277672 
	C195.290573,50.029087 201.880737,53.035122 208.802856,55.787094 
z"/>
<path fill="#7245C2" opacity="1.000000" stroke="none" 
	d="
M198.760559,280.803070 
	C208.638443,275.527771 218.959564,270.296967 229.625458,264.993042 
	C227.670044,266.885986 225.656754,269.462860 223.015762,270.703064 
	C215.211487,274.367889 207.159103,277.504333 198.760559,280.803070 
z"/>
<path fill="#7245C2" opacity="1.000000" stroke="none" 
	d="
M257.220154,238.868195 
	C261.327423,231.367096 265.767426,223.781113 270.445465,215.949249 
	C268.730957,224.775925 264.278992,232.426498 257.220154,238.868195 
z"/>
<path fill="#7245C2" opacity="1.000000" stroke="none" 
	d="
M114.764000,55.096405 
	C109.021576,58.418034 102.880127,61.708984 96.386276,65.064896 
	C100.826324,59.374672 107.394936,56.854603 114.764000,55.096405 
z"/>
<path fill="#7245C2" opacity="1.000000" stroke="none" 
	d="
M48.240166,208.861816 
	C51.283730,214.589706 54.304337,220.732498 57.435318,227.218811 
	C54.436195,221.467148 51.326702,215.371933 48.240166,208.861816 
z"/>
<path fill="#7245C2" opacity="1.000000" stroke="none" 
	d="
M263.911499,103.750214 
	C260.954346,100.009346 257.991852,95.891441 254.933029,91.441589 
	C260.478577,93.260841 262.015808,98.447586 263.911499,103.750214 
z"/>
<path fill="#7245C2" opacity="1.000000" stroke="none" 
	d="
M109.189392,275.176819 
	C113.752625,276.656525 118.443024,278.454468 123.425827,280.501953 
	C118.917664,278.999329 114.117111,277.247192 109.189392,275.176819 
z"/>
<path fill="#7245C2" opacity="1.000000" stroke="none" 
	d="
M149.667191,46.599167 
	C144.587494,47.646118 139.135757,48.543312 133.292892,49.376770 
	C138.366226,48.358494 143.830688,47.403954 149.667191,46.599167 
z"/>
<path fill="#7245C2" opacity="1.000000" stroke="none" 
	d="
M130.380035,49.966537 
	C125.803230,51.701153 120.814697,53.406471 115.438080,55.143959 
	C120.022766,53.429836 124.995529,51.683540 130.380035,49.966537 
z"/>
<path fill="#7245C2" opacity="1.000000" stroke="none" 
	d="
M92.140266,265.216766 
	C96.277802,267.376831 100.502747,269.871155 104.905342,272.655914 
	C100.797890,270.481232 96.512779,268.016113 92.140266,265.216766 
z"/>
<path fill="#7245C2" opacity="1.000000" stroke="none" 
	d="
M70.598923,245.853119 
	C73.749458,248.667130 76.892433,251.825912 80.206116,255.259903 
	C77.115013,252.422714 73.853188,249.310318 70.598923,245.853119 
z"/>
<path fill="#7245C2" opacity="1.000000" stroke="none" 
	d="
M57.505920,227.944550 
	C60.008659,231.164215 62.477360,234.759750 65.030273,238.702820 
	C62.566948,235.473694 60.019413,231.897064 57.505920,227.944550 
z"/>
<path fill="#7245C2" opacity="1.000000" stroke="none" 
	d="
M221.512299,62.149952 
	C217.527176,60.519207 213.440521,58.557407 209.143768,56.318306 
	C213.092712,57.966965 217.251740,59.892933 221.512299,62.149952 
z"/>
<path fill="#7245C2" opacity="1.000000" stroke="none" 
	d="
M75.813599,81.147041 
	C73.836830,83.755035 71.517227,86.429031 68.938202,89.294083 
	C70.942780,86.727768 73.206772,83.970406 75.813599,81.147041 
z"/>
<path fill="#7245C2" opacity="1.000000" stroke="none" 
	d="
M230.280594,264.939911 
	C232.712219,262.682159 235.509262,260.408661 238.622406,258.007568 
	C236.174332,260.228027 233.410172,262.576080 230.280594,264.939911 
z"/>
<path fill="#7245C2" opacity="1.000000" stroke="none" 
	d="
M82.706879,257.777344 
	C85.708458,259.742035 88.738976,262.049866 91.944473,264.646484 
	C88.991570,262.663696 85.863693,260.392090 82.706879,257.777344 
z"/>
<path fill="#7245C2" opacity="1.000000" stroke="none" 
	d="
M241.945221,255.520020 
	C244.093414,252.968781 246.595734,250.433960 249.398529,247.748260 
	C247.232483,250.243744 244.765930,252.890091 241.945221,255.520020 
z"/>
<path fill="#7245C2" opacity="1.000000" stroke="none" 
	d="
M63.800697,95.156219 
	C62.294437,97.954727 60.449429,100.828308 58.337765,103.907906 
	C59.868053,101.153053 61.664997,98.192169 63.800697,95.156219 
z"/>
<path fill="#7245C2" opacity="1.000000" stroke="none" 
	d="
M92.096596,67.567352 
	C90.209320,69.369797 87.958641,71.139923 85.384109,73.017319 
	C87.284569,71.261406 89.508881,69.398224 92.096596,67.567352 
z"/>
<path fill="#7245C2" opacity="1.000000" stroke="none" 
	d="
M268.898804,112.773407 
	C267.505707,110.779350 266.133942,108.393135 264.667725,105.666344 
	C266.022217,107.677589 267.471161,110.029411 268.898804,112.773407 
z"/>
<path fill="#7245C2" opacity="1.000000" stroke="none" 
	d="
M57.077705,105.410797 
	C56.162292,107.774742 54.911224,110.255852 53.391228,112.949127 
	C54.328880,110.616852 55.535465,108.072411 57.077705,105.410797 
z"/>
<path fill="#7245C2" opacity="1.000000" stroke="none" 
	d="
M52.877457,113.239594 
	C52.051826,115.759911 50.920807,118.460983 49.519222,121.412819 
	C50.356457,118.915840 51.464260,116.168098 52.877457,113.239594 
z"/>
<path fill="#7245C2" opacity="1.000000" stroke="none" 
	d="
M253.366821,89.114365 
	C251.885147,87.897194 250.444382,86.325226 248.902939,84.442085 
	C250.337418,85.673798 251.872589,87.216682 253.366821,89.114365 
z"/>
<path fill="#7245C2" opacity="1.000000" stroke="none" 
	d="
M243.872528,78.883621 
	C242.273178,77.844398 240.605759,76.452858 238.748535,74.803513 
	C240.307327,75.874237 242.055893,77.202774 243.872528,78.883621 
z"/>
<path fill="#7245C2" opacity="1.000000" stroke="none" 
	d="
M165.204651,46.094124 
	C161.754761,46.298866 157.952621,46.420689 153.732788,46.436554 
	C157.160873,46.224140 161.006622,46.117676 165.204651,46.094124 
z"/>
<path fill="#7245C2" opacity="1.000000" stroke="none" 
	d="
M68.213112,89.687683 
	C67.261818,91.370377 65.963249,93.091797 64.380531,94.973503 
	C65.352859,93.331329 66.609344,91.528862 68.213112,89.687683 
z"/>
<path fill="#7245C2" opacity="1.000000" stroke="none" 
	d="
M83.083740,74.541153 
	C81.849411,76.039940 80.266602,77.521286 78.369049,79.118111 
	C79.614624,77.663635 81.174942,76.093674 83.083740,74.541153 
z"/>
<path fill="#7245C2" opacity="1.000000" stroke="none" 
	d="
M65.325867,239.608215 
	C66.467926,240.598785 67.692513,241.946381 69.023682,243.615967 
	C67.889633,242.613708 66.649017,241.289474 65.325867,239.608215 
z"/>
<path fill="#7245C2" opacity="1.000000" stroke="none" 
	d="
M233.460510,70.197464 
	C232.331421,69.728745 231.129898,68.915184 229.733505,67.858521 
	C230.821777,68.361153 232.104919,69.106888 233.460510,70.197464 
z"/>
<path fill="#7245C2" opacity="1.000000" stroke="none" 
	d="
M236.859314,72.777756 
	C235.939941,72.418556 234.931290,71.726509 233.734375,70.789871 
	C234.620743,71.178490 235.695374,71.811699 236.859314,72.777756 
z"/>
<path fill="#7245C2" opacity="1.000000" stroke="none" 
	d="
M253.231293,243.878174 
	C253.620956,242.945801 254.342392,241.933243 255.345184,240.785522 
	C254.938705,241.699554 254.250885,242.748764 253.231293,243.878174 
z"/>
<path fill="#7245C2" opacity="1.000000" stroke="none" 
	d="
M225.798309,64.838531 
	C224.645447,64.417252 223.316681,63.698620 221.793961,62.724045 
	C222.940811,63.159119 224.281616,63.850147 225.798309,64.838531 
z"/>
<path fill="#7245C2" opacity="1.000000" stroke="none" 
	d="
M248.802338,83.863190 
	C247.920746,83.343346 246.979126,82.484535 245.903076,81.330902 
	C246.759872,81.865448 247.751083,82.694832 248.802338,83.863190 
z"/>
<path fill="#7245C2" opacity="1.000000" stroke="none" 
	d="
M95.775467,65.088020 
	C95.124931,65.839149 94.120705,66.591606 92.817612,67.455070 
	C93.486420,66.740501 94.454102,65.914925 95.775467,65.088020 
z"/>
<path fill="#7245C2" opacity="1.000000" stroke="none" 
	d="
M229.367340,67.234848 
	C228.369049,66.919754 227.288116,66.271095 226.039734,65.352951 
	C227.009766,65.689407 228.147217,66.295349 229.367340,67.234848 
z"/>
<path fill="#7245C2" opacity="1.000000" stroke="none" 
	d="
M105.207260,273.185364 
	C106.238625,273.400543 107.472916,273.895325 108.923630,274.645264 
	C107.896759,274.421936 106.653473,273.943451 105.207260,273.185364 
z"/>
<path fill="#7245C2" opacity="1.000000" stroke="none" 
	d="
M249.946869,247.584320 
	C250.066605,247.034683 250.495285,246.421951 251.165588,245.657745 
	C251.023422,246.177917 250.639633,246.849564 249.946869,247.584320 
z"/>
<path fill="#7245C2" opacity="1.000000" stroke="none" 
	d="
M239.204712,257.871399 
	C239.594421,257.214935 240.306747,256.492798 241.299255,255.643311 
	C240.895416,256.279205 240.211365,257.042511 239.204712,257.871399 
z"/>
<path fill="#7245C2" opacity="1.000000" stroke="none" 
	d="
M80.493980,255.852951 
	C81.014717,255.990982 81.621918,256.421387 82.387848,257.090576 
	C81.891205,256.934662 81.235825,256.540009 80.493980,255.852951 
z"/>
<path fill="#7245C2" opacity="1.000000" stroke="none" 
	d="
M255.837433,240.548233 
	C255.856903,240.181274 256.131165,239.664810 256.675507,239.015778 
	C256.661102,239.388382 256.376648,239.893555 255.837433,240.548233 
z"/>
<path fill="#7245C2" opacity="1.000000" stroke="none" 
	d="
M84.849548,73.153412 
	C84.750275,73.476128 84.373466,73.890648 83.733078,74.418037 
	C83.836998,74.102341 84.204506,73.673790 84.849548,73.153412 
z"/>
<path fill="#7245C2" opacity="1.000000" stroke="none" 
	d="
M238.435059,74.270523 
	C238.074173,74.222740 237.595444,73.906677 237.002869,73.323029 
	C237.365097,73.371040 237.841171,73.686646 238.435059,74.270523 
z"/>
<path fill="#7245C2" opacity="1.000000" stroke="none" 
	d="
M254.798279,90.891418 
	C254.468048,90.808754 254.056992,90.450409 253.528015,89.838882 
	C253.845856,89.929047 254.281662,90.272392 254.798279,90.891418 
z"/>
<path fill="#7245C2" opacity="1.000000" stroke="none" 
	d="
M251.686584,245.396439 
	C251.745514,245.034500 252.078369,244.566422 252.685760,243.999710 
	C252.627029,244.364151 252.293777,244.827225 251.686584,245.396439 
z"/>
<path fill="#7245C2" opacity="1.000000" stroke="none" 
	d="
M69.161865,244.148941 
	C69.498497,244.235580 69.928215,244.601730 70.475204,245.235260 
	C70.146637,245.144592 69.700790,244.786530 69.161865,244.148941 
z"/>
<path fill="#7245C2" opacity="1.000000" stroke="none" 
	d="
M270.830566,215.634979 
	C270.763580,215.270737 270.918793,214.685928 271.273865,213.872864 
	C271.333344,214.234558 271.193054,214.824478 270.830566,215.634979 
z"/>
<path fill="#7245C2" opacity="1.000000" stroke="none" 
	d="
M57.931717,104.201660 
	C58.010433,104.361588 57.904858,104.720047 57.558071,105.232956 
	C57.460381,105.058342 57.603901,104.729279 57.931717,104.201660 
z"/>
<path fill="#7245C2" opacity="1.000000" stroke="none" 
	d="
M264.573456,105.136864 
	C264.403778,105.123489 264.158203,104.853127 263.892639,104.299774 
	C264.080933,104.304482 264.289246,104.592178 264.573456,105.136864 
z"/>
<path fill="#7245C2" opacity="1.000000" stroke="none" 
	d="
M76.996902,80.191681 
	C77.018234,80.362190 76.797821,80.672943 76.299255,81.076157 
	C76.265785,80.889709 76.510475,80.610817 76.996902,80.191681 
z"/>
<path fill="#7245C2" opacity="1.000000" stroke="none" 
	d="
M168.783783,46.339214 
	C168.831741,46.409279 168.526337,46.517384 168.402649,46.415386 
	C168.417999,46.186115 168.570282,46.171371 168.783783,46.339214 
z"/>
<path fill="none"  stroke="none" 
	d="
M178.786453,222.812668 
	C175.898560,224.821625 173.063187,226.356171 170.740051,228.457108 
	C164.375916,234.212540 158.781128,233.919189 151.562637,228.921188 
	C128.781921,213.148132 109.711647,194.068298 95.282738,170.360397 
	C93.473740,167.388062 93.586800,165.201965 95.390793,162.240356 
	C110.834343,136.886627 131.252960,116.578262 156.461121,100.955627 
	C159.723022,98.934090 162.147476,98.872383 165.465439,100.914948 
	C190.867706,116.552704 211.241928,137.099747 226.799301,162.532043 
	C228.525604,165.354126 228.530853,167.387115 226.843887,170.160919 
	C214.319046,190.755234 198.427292,208.243698 178.786453,222.812668 
z"/>
<path fill="none"  stroke="none" 
	d="
M218.644287,85.080078 
	C235.122421,89.838829 242.679733,99.658409 243.086884,116.421593 
	C243.345078,127.052711 241.473389,137.283325 237.176010,148.068298 
	C221.540741,124.856239 202.770493,105.805740 179.179398,90.229065 
	C192.404938,85.310638 204.944870,82.610687 218.644287,85.080078 
z"/>
<path fill="none"  stroke="none" 
	d="
M92.396042,137.421509 
	C89.869347,140.899521 87.565994,144.096802 84.686584,148.093704 
	C79.269630,132.510345 76.057770,117.736656 81.741837,102.426712 
	C84.912354,93.886940 91.320122,88.587196 99.960045,86.028595 
	C114.411087,81.749130 128.133469,85.145676 142.938583,90.026833 
	C123.004494,103.434319 106.434303,118.847710 92.396042,137.421509 
z"/>
<path fill="none"  stroke="none" 
	d="
M182.523834,240.230865 
	C203.140244,226.042221 213.245010,215.832504 237.466431,184.635040 
	C238.748962,188.982224 240.322052,192.713058 240.890747,196.591187 
	C241.921799,203.622299 243.097992,210.762634 242.893723,217.819183 
	C242.342468,236.863174 230.807129,247.607071 210.210938,248.546173 
	C199.813919,249.020248 189.807648,246.526688 179.521667,242.784241 
	C180.672745,241.784454 181.459244,241.101334 182.523834,240.230865 
z"/>
<path fill="none"  stroke="none" 
	d="
M91.684021,194.300690 
	C99.631569,203.258743 106.897438,212.411240 115.223114,220.468658 
	C123.411697,228.393402 132.675629,235.206985 142.062317,243.001923 
	C138.494034,244.059067 135.045441,245.628830 131.465454,246.031921 
	C122.947189,246.991028 114.303802,248.363037 105.825813,247.809433 
	C92.057632,246.910355 82.587471,237.721634 79.848549,224.200775 
	C77.132408,210.792313 79.908211,198.008835 84.685616,184.644608 
	C87.247505,188.185120 89.356972,191.100357 91.684021,194.300690 
z"/>
<path fill="none"  stroke="none" 
	d="
M163.918198,270.023254 
	C151.367645,270.376648 139.657440,268.444977 127.656975,264.506805 
	C128.678268,263.890839 129.239929,263.393341 129.894104,263.181458 
	C139.019104,260.226105 148.115601,257.168793 157.320526,254.484222 
	C159.592896,253.821518 162.390076,253.844757 164.667511,254.508408 
	C173.876709,257.191925 182.978745,260.243713 192.114014,263.179199 
	C192.701736,263.368042 193.236099,263.722870 193.795288,264.000488 
	C193.838150,264.549683 193.881027,265.098877 193.923889,265.648071 
	C184.083588,267.105988 174.243286,268.563904 163.918198,270.023254 
z"/>
<path fill="none"  stroke="none" 
	d="
M257.209869,138.341614 
	C259.520752,133.909988 260.589294,136.527939 260.883209,138.812744 
	C262.254761,149.473801 264.051270,160.146683 264.362122,170.854050 
	C264.565674,177.866318 262.545105,184.953079 261.398438,191.986542 
	C261.157745,193.462952 260.382080,194.852127 259.413788,197.467651 
	C258.144592,195.434998 257.420868,194.634583 257.093964,193.695984 
	C254.260590,185.560928 251.356506,177.444855 248.819199,169.216507 
	C248.216034,167.260437 248.462082,164.763687 249.088577,162.756271 
	C251.603775,154.697220 254.421768,146.732666 257.209869,138.341614 
z"/>
<path fill="none"  stroke="none" 
	d="
M59.275322,186.589462 
	C56.278866,168.861084 56.413876,151.802887 62.771053,134.508209 
	C66.757721,145.362061 70.416039,155.242905 73.976929,165.158737 
	C74.279327,166.000809 74.165619,167.161774 73.849396,168.030518 
	C70.401009,177.504135 66.873650,186.948990 62.782436,197.979919 
	C61.452007,193.683258 60.417744,190.343079 59.275322,186.589462 
z"/>
<path fill="none" stroke="none" 
	d="
M148.956024,63.658321 
	C149.403091,63.511951 149.850143,63.365582 151.035599,63.393997 
	C161.404861,64.318443 171.034439,65.086212 180.669113,65.783340 
	C181.439102,65.839050 182.244370,65.406990 183.033249,65.201607 
	C186.715958,66.109497 190.398682,67.017387 195.457291,68.264481 
	C188.204330,70.315926 181.795288,71.014610 176.537781,73.849159 
	C165.807617,79.634247 155.879074,79.451241 145.279846,73.750534 
	C140.730515,71.303703 135.300568,70.494164 129.466309,68.692291 
	C132.954208,67.305908 135.606094,66.251831 138.961014,65.342072 
	C142.761368,64.877037 145.858704,64.267677 148.956024,63.658321 
z"/>
<path fill="none"  stroke="none" 
	d="
M182.645599,65.069397 
	C182.244370,65.406990 181.439102,65.839050 180.669113,65.783340 
	C171.034439,65.086212 161.404861,64.318443 151.391602,63.421478 
	C161.425461,63.828510 171.841690,64.382843 182.645599,65.069397 
z"/>
<path fill="none"  stroke="none" 
	d="
M148.578201,63.619034 
	C145.858704,64.267677 142.761368,64.877037 139.330475,65.341721 
	C142.064728,64.657951 145.132553,64.118843 148.578201,63.619034 
z"/>
</svg>